<mxfile host="app.diagrams.net" modified="2023-04-26T15:37:05.920Z" agent="Mozilla/5.0 (Windows NT 10.0; Win64; x64) AppleWebKit/537.36 (KHTML, like Gecko) Chrome/112.0.0.0 Safari/537.36" etag="XodF0rV3zrOwViVyfRcE" version="21.2.2" type="github">
  <diagram id="C5RBs43oDa-KdzZeNtuy" name="Page-1">
    <mxGraphModel dx="2415" dy="860" grid="1" gridSize="10" guides="1" tooltips="1" connect="1" arrows="1" fold="1" page="1" pageScale="1" pageWidth="827" pageHeight="1169" math="0" shadow="0">
      <root>
        <mxCell id="WIyWlLk6GJQsqaUBKTNV-0" />
        <mxCell id="WIyWlLk6GJQsqaUBKTNV-1" parent="WIyWlLk6GJQsqaUBKTNV-0" />
        <mxCell id="b4TNvW51mJltBKNjt7cJ-5" value="" style="edgeStyle=orthogonalEdgeStyle;rounded=0;orthogonalLoop=1;jettySize=auto;html=1;" edge="1" parent="WIyWlLk6GJQsqaUBKTNV-1" source="WIyWlLk6GJQsqaUBKTNV-6">
          <mxGeometry relative="1" as="geometry">
            <mxPoint x="70" y="180" as="targetPoint" />
          </mxGeometry>
        </mxCell>
        <mxCell id="WIyWlLk6GJQsqaUBKTNV-6" value="--help || -h" style="rhombus;whiteSpace=wrap;html=1;shadow=0;fontFamily=Helvetica;fontSize=12;align=center;strokeWidth=1;spacing=6;spacingTop=-4;" parent="WIyWlLk6GJQsqaUBKTNV-1" vertex="1">
          <mxGeometry x="10" y="50" width="100" height="80" as="geometry" />
        </mxCell>
        <mxCell id="WIyWlLk6GJQsqaUBKTNV-9" value="Yes" style="edgeStyle=orthogonalEdgeStyle;rounded=0;html=1;jettySize=auto;orthogonalLoop=1;fontSize=11;endArrow=block;endFill=0;endSize=8;strokeWidth=1;shadow=0;labelBackgroundColor=none;" parent="WIyWlLk6GJQsqaUBKTNV-1" source="WIyWlLk6GJQsqaUBKTNV-10" edge="1">
          <mxGeometry y="10" relative="1" as="geometry">
            <mxPoint as="offset" />
            <mxPoint x="510" y="100" as="targetPoint" />
          </mxGeometry>
        </mxCell>
        <mxCell id="WIyWlLk6GJQsqaUBKTNV-10" value="--version || -v" style="rhombus;whiteSpace=wrap;html=1;shadow=0;fontFamily=Helvetica;fontSize=12;align=center;strokeWidth=1;spacing=6;spacingTop=-4;" parent="WIyWlLk6GJQsqaUBKTNV-1" vertex="1">
          <mxGeometry x="370" y="80" width="100" height="80" as="geometry" />
        </mxCell>
        <mxCell id="b4TNvW51mJltBKNjt7cJ-3" value="" style="edgeStyle=orthogonalEdgeStyle;rounded=0;orthogonalLoop=1;jettySize=auto;html=1;" edge="1" parent="WIyWlLk6GJQsqaUBKTNV-1" source="b4TNvW51mJltBKNjt7cJ-2" target="WIyWlLk6GJQsqaUBKTNV-10">
          <mxGeometry relative="1" as="geometry" />
        </mxCell>
        <mxCell id="b4TNvW51mJltBKNjt7cJ-6" value="" style="edgeStyle=orthogonalEdgeStyle;rounded=0;orthogonalLoop=1;jettySize=auto;html=1;" edge="1" parent="WIyWlLk6GJQsqaUBKTNV-1" source="b4TNvW51mJltBKNjt7cJ-2" target="WIyWlLk6GJQsqaUBKTNV-6">
          <mxGeometry relative="1" as="geometry" />
        </mxCell>
        <mxCell id="b4TNvW51mJltBKNjt7cJ-8" value="" style="edgeStyle=orthogonalEdgeStyle;rounded=0;orthogonalLoop=1;jettySize=auto;html=1;" edge="1" parent="WIyWlLk6GJQsqaUBKTNV-1" source="b4TNvW51mJltBKNjt7cJ-2" target="b4TNvW51mJltBKNjt7cJ-7">
          <mxGeometry relative="1" as="geometry" />
        </mxCell>
        <mxCell id="b4TNvW51mJltBKNjt7cJ-2" value="Start" style="ellipse;whiteSpace=wrap;html=1;" vertex="1" parent="WIyWlLk6GJQsqaUBKTNV-1">
          <mxGeometry x="160" y="90" width="110" height="80" as="geometry" />
        </mxCell>
        <mxCell id="b4TNvW51mJltBKNjt7cJ-10" value="" style="edgeStyle=orthogonalEdgeStyle;rounded=0;orthogonalLoop=1;jettySize=auto;html=1;" edge="1" parent="WIyWlLk6GJQsqaUBKTNV-1" source="b4TNvW51mJltBKNjt7cJ-7" target="b4TNvW51mJltBKNjt7cJ-9">
          <mxGeometry relative="1" as="geometry" />
        </mxCell>
        <mxCell id="b4TNvW51mJltBKNjt7cJ-17" value="" style="edgeStyle=orthogonalEdgeStyle;rounded=0;orthogonalLoop=1;jettySize=auto;html=1;" edge="1" parent="WIyWlLk6GJQsqaUBKTNV-1" source="b4TNvW51mJltBKNjt7cJ-7" target="b4TNvW51mJltBKNjt7cJ-16">
          <mxGeometry relative="1" as="geometry" />
        </mxCell>
        <mxCell id="b4TNvW51mJltBKNjt7cJ-7" value="cpu" style="rhombus;whiteSpace=wrap;html=1;" vertex="1" parent="WIyWlLk6GJQsqaUBKTNV-1">
          <mxGeometry x="180" y="220" width="80" height="80" as="geometry" />
        </mxCell>
        <mxCell id="b4TNvW51mJltBKNjt7cJ-12" value="" style="edgeStyle=orthogonalEdgeStyle;rounded=0;orthogonalLoop=1;jettySize=auto;html=1;" edge="1" parent="WIyWlLk6GJQsqaUBKTNV-1" source="b4TNvW51mJltBKNjt7cJ-9">
          <mxGeometry relative="1" as="geometry">
            <mxPoint x="480" y="260" as="targetPoint" />
          </mxGeometry>
        </mxCell>
        <mxCell id="b4TNvW51mJltBKNjt7cJ-15" value="" style="edgeStyle=orthogonalEdgeStyle;rounded=0;orthogonalLoop=1;jettySize=auto;html=1;exitX=0.5;exitY=1;exitDx=0;exitDy=0;" edge="1" parent="WIyWlLk6GJQsqaUBKTNV-1" source="b4TNvW51mJltBKNjt7cJ-9">
          <mxGeometry relative="1" as="geometry">
            <mxPoint x="380" y="310" as="sourcePoint" />
            <mxPoint x="380" y="370" as="targetPoint" />
          </mxGeometry>
        </mxCell>
        <mxCell id="b4TNvW51mJltBKNjt7cJ-9" value="getinfo" style="rhombus;whiteSpace=wrap;html=1;" vertex="1" parent="WIyWlLk6GJQsqaUBKTNV-1">
          <mxGeometry x="340" y="220" width="80" height="80" as="geometry" />
        </mxCell>
        <mxCell id="b4TNvW51mJltBKNjt7cJ-13" value="Yes" style="text;html=1;align=center;verticalAlign=middle;resizable=0;points=[];autosize=1;strokeColor=none;fillColor=none;" vertex="1" parent="WIyWlLk6GJQsqaUBKTNV-1">
          <mxGeometry x="420" y="228" width="40" height="30" as="geometry" />
        </mxCell>
        <mxCell id="b4TNvW51mJltBKNjt7cJ-21" value="" style="edgeStyle=orthogonalEdgeStyle;rounded=0;orthogonalLoop=1;jettySize=auto;html=1;" edge="1" parent="WIyWlLk6GJQsqaUBKTNV-1" source="b4TNvW51mJltBKNjt7cJ-16" target="b4TNvW51mJltBKNjt7cJ-20">
          <mxGeometry relative="1" as="geometry" />
        </mxCell>
        <mxCell id="b4TNvW51mJltBKNjt7cJ-26" value="" style="edgeStyle=orthogonalEdgeStyle;rounded=0;orthogonalLoop=1;jettySize=auto;html=1;" edge="1" parent="WIyWlLk6GJQsqaUBKTNV-1" source="b4TNvW51mJltBKNjt7cJ-16" target="b4TNvW51mJltBKNjt7cJ-25">
          <mxGeometry relative="1" as="geometry" />
        </mxCell>
        <mxCell id="b4TNvW51mJltBKNjt7cJ-16" value="Memory" style="rhombus;whiteSpace=wrap;html=1;" vertex="1" parent="WIyWlLk6GJQsqaUBKTNV-1">
          <mxGeometry x="180" y="380" width="80" height="80" as="geometry" />
        </mxCell>
        <mxCell id="b4TNvW51mJltBKNjt7cJ-18" value="No" style="text;html=1;align=center;verticalAlign=middle;resizable=0;points=[];autosize=1;strokeColor=none;fillColor=none;" vertex="1" parent="WIyWlLk6GJQsqaUBKTNV-1">
          <mxGeometry x="180" y="318" width="40" height="30" as="geometry" />
        </mxCell>
        <mxCell id="b4TNvW51mJltBKNjt7cJ-19" value="No" style="text;html=1;align=center;verticalAlign=middle;resizable=0;points=[];autosize=1;strokeColor=none;fillColor=none;" vertex="1" parent="WIyWlLk6GJQsqaUBKTNV-1">
          <mxGeometry x="340" y="328" width="40" height="30" as="geometry" />
        </mxCell>
        <mxCell id="b4TNvW51mJltBKNjt7cJ-24" value="" style="edgeStyle=orthogonalEdgeStyle;rounded=0;orthogonalLoop=1;jettySize=auto;html=1;" edge="1" parent="WIyWlLk6GJQsqaUBKTNV-1" source="b4TNvW51mJltBKNjt7cJ-20">
          <mxGeometry relative="1" as="geometry">
            <mxPoint x="-40" y="420" as="targetPoint" />
          </mxGeometry>
        </mxCell>
        <mxCell id="b4TNvW51mJltBKNjt7cJ-28" value="" style="edgeStyle=orthogonalEdgeStyle;rounded=0;orthogonalLoop=1;jettySize=auto;html=1;exitX=0.5;exitY=1;exitDx=0;exitDy=0;" edge="1" parent="WIyWlLk6GJQsqaUBKTNV-1" source="b4TNvW51mJltBKNjt7cJ-20">
          <mxGeometry relative="1" as="geometry">
            <mxPoint x="60" y="470" as="sourcePoint" />
            <mxPoint x="60" y="540" as="targetPoint" />
          </mxGeometry>
        </mxCell>
        <mxCell id="b4TNvW51mJltBKNjt7cJ-20" value="getInfo" style="rhombus;whiteSpace=wrap;html=1;" vertex="1" parent="WIyWlLk6GJQsqaUBKTNV-1">
          <mxGeometry x="20" y="380" width="80" height="80" as="geometry" />
        </mxCell>
        <mxCell id="b4TNvW51mJltBKNjt7cJ-22" value="Yes" style="text;html=1;align=center;verticalAlign=middle;resizable=0;points=[];autosize=1;strokeColor=none;fillColor=none;" vertex="1" parent="WIyWlLk6GJQsqaUBKTNV-1">
          <mxGeometry x="130" y="388" width="40" height="30" as="geometry" />
        </mxCell>
        <mxCell id="b4TNvW51mJltBKNjt7cJ-40" value="" style="edgeStyle=orthogonalEdgeStyle;rounded=0;orthogonalLoop=1;jettySize=auto;html=1;" edge="1" parent="WIyWlLk6GJQsqaUBKTNV-1" source="b4TNvW51mJltBKNjt7cJ-25" target="b4TNvW51mJltBKNjt7cJ-39">
          <mxGeometry relative="1" as="geometry" />
        </mxCell>
        <mxCell id="b4TNvW51mJltBKNjt7cJ-94" value="" style="edgeStyle=orthogonalEdgeStyle;rounded=0;orthogonalLoop=1;jettySize=auto;html=1;entryX=0.5;entryY=0;entryDx=0;entryDy=0;" edge="1" parent="WIyWlLk6GJQsqaUBKTNV-1" source="b4TNvW51mJltBKNjt7cJ-25" target="b4TNvW51mJltBKNjt7cJ-91">
          <mxGeometry relative="1" as="geometry">
            <Array as="points">
              <mxPoint x="220" y="630" />
              <mxPoint x="-75" y="630" />
            </Array>
          </mxGeometry>
        </mxCell>
        <mxCell id="b4TNvW51mJltBKNjt7cJ-25" value="User" style="rhombus;whiteSpace=wrap;html=1;" vertex="1" parent="WIyWlLk6GJQsqaUBKTNV-1">
          <mxGeometry x="180" y="540" width="80" height="80" as="geometry" />
        </mxCell>
        <mxCell id="b4TNvW51mJltBKNjt7cJ-29" value="No" style="text;html=1;align=center;verticalAlign=middle;resizable=0;points=[];autosize=1;strokeColor=none;fillColor=none;" vertex="1" parent="WIyWlLk6GJQsqaUBKTNV-1">
          <mxGeometry x="60" y="480" width="40" height="30" as="geometry" />
        </mxCell>
        <mxCell id="b4TNvW51mJltBKNjt7cJ-30" value="No" style="text;html=1;align=center;verticalAlign=middle;resizable=0;points=[];autosize=1;strokeColor=none;fillColor=none;" vertex="1" parent="WIyWlLk6GJQsqaUBKTNV-1">
          <mxGeometry x="220" y="490" width="40" height="30" as="geometry" />
        </mxCell>
        <mxCell id="b4TNvW51mJltBKNjt7cJ-31" value="Exit" style="ellipse;whiteSpace=wrap;html=1;" vertex="1" parent="WIyWlLk6GJQsqaUBKTNV-1">
          <mxGeometry x="332.5" y="372" width="95" height="62" as="geometry" />
        </mxCell>
        <mxCell id="b4TNvW51mJltBKNjt7cJ-32" value="Exit" style="ellipse;whiteSpace=wrap;html=1;" vertex="1" parent="WIyWlLk6GJQsqaUBKTNV-1">
          <mxGeometry x="15" y="540" width="90" height="60" as="geometry" />
        </mxCell>
        <mxCell id="b4TNvW51mJltBKNjt7cJ-33" value="Prints CPU information" style="shape=parallelogram;perimeter=parallelogramPerimeter;whiteSpace=wrap;html=1;fixedSize=1;" vertex="1" parent="WIyWlLk6GJQsqaUBKTNV-1">
          <mxGeometry x="470" y="230" width="120" height="60" as="geometry" />
        </mxCell>
        <mxCell id="b4TNvW51mJltBKNjt7cJ-34" value="Prints all commands" style="shape=parallelogram;perimeter=parallelogramPerimeter;whiteSpace=wrap;html=1;fixedSize=1;" vertex="1" parent="WIyWlLk6GJQsqaUBKTNV-1">
          <mxGeometry x="-10" y="180" width="140" height="60" as="geometry" />
        </mxCell>
        <mxCell id="b4TNvW51mJltBKNjt7cJ-35" value="Prints Version of command" style="shape=parallelogram;perimeter=parallelogramPerimeter;whiteSpace=wrap;html=1;fixedSize=1;" vertex="1" parent="WIyWlLk6GJQsqaUBKTNV-1">
          <mxGeometry x="500" y="70" width="160" height="70" as="geometry" />
        </mxCell>
        <mxCell id="b4TNvW51mJltBKNjt7cJ-38" value="Prints Memory Information" style="shape=parallelogram;perimeter=parallelogramPerimeter;whiteSpace=wrap;html=1;fixedSize=1;" vertex="1" parent="WIyWlLk6GJQsqaUBKTNV-1">
          <mxGeometry x="-150" y="390" width="120" height="60" as="geometry" />
        </mxCell>
        <mxCell id="b4TNvW51mJltBKNjt7cJ-42" value="" style="edgeStyle=orthogonalEdgeStyle;rounded=0;orthogonalLoop=1;jettySize=auto;html=1;" edge="1" parent="WIyWlLk6GJQsqaUBKTNV-1" source="b4TNvW51mJltBKNjt7cJ-39" target="b4TNvW51mJltBKNjt7cJ-41">
          <mxGeometry relative="1" as="geometry" />
        </mxCell>
        <mxCell id="b4TNvW51mJltBKNjt7cJ-60" value="" style="edgeStyle=orthogonalEdgeStyle;rounded=0;orthogonalLoop=1;jettySize=auto;html=1;" edge="1" parent="WIyWlLk6GJQsqaUBKTNV-1" source="b4TNvW51mJltBKNjt7cJ-39" target="b4TNvW51mJltBKNjt7cJ-59">
          <mxGeometry relative="1" as="geometry" />
        </mxCell>
        <mxCell id="b4TNvW51mJltBKNjt7cJ-39" value="Create" style="rhombus;whiteSpace=wrap;html=1;" vertex="1" parent="WIyWlLk6GJQsqaUBKTNV-1">
          <mxGeometry x="334" y="468" width="80" height="80" as="geometry" />
        </mxCell>
        <mxCell id="b4TNvW51mJltBKNjt7cJ-46" value="" style="edgeStyle=orthogonalEdgeStyle;rounded=0;orthogonalLoop=1;jettySize=auto;html=1;exitX=0.5;exitY=1;exitDx=0;exitDy=0;" edge="1" parent="WIyWlLk6GJQsqaUBKTNV-1" source="b4TNvW51mJltBKNjt7cJ-41" target="b4TNvW51mJltBKNjt7cJ-45">
          <mxGeometry relative="1" as="geometry" />
        </mxCell>
        <mxCell id="b4TNvW51mJltBKNjt7cJ-49" value="" style="edgeStyle=orthogonalEdgeStyle;rounded=0;orthogonalLoop=1;jettySize=auto;html=1;" edge="1" parent="WIyWlLk6GJQsqaUBKTNV-1" source="b4TNvW51mJltBKNjt7cJ-41" target="b4TNvW51mJltBKNjt7cJ-48">
          <mxGeometry relative="1" as="geometry" />
        </mxCell>
        <mxCell id="b4TNvW51mJltBKNjt7cJ-41" value="args!=3" style="rhombus;whiteSpace=wrap;html=1;" vertex="1" parent="WIyWlLk6GJQsqaUBKTNV-1">
          <mxGeometry x="500" y="468" width="80" height="80" as="geometry" />
        </mxCell>
        <mxCell id="b4TNvW51mJltBKNjt7cJ-52" value="" style="edgeStyle=orthogonalEdgeStyle;rounded=0;orthogonalLoop=1;jettySize=auto;html=1;" edge="1" parent="WIyWlLk6GJQsqaUBKTNV-1" source="b4TNvW51mJltBKNjt7cJ-45" target="b4TNvW51mJltBKNjt7cJ-51">
          <mxGeometry relative="1" as="geometry" />
        </mxCell>
        <mxCell id="b4TNvW51mJltBKNjt7cJ-45" value="Add a User" style="whiteSpace=wrap;html=1;" vertex="1" parent="WIyWlLk6GJQsqaUBKTNV-1">
          <mxGeometry x="630" y="608" width="120" height="60" as="geometry" />
        </mxCell>
        <mxCell id="b4TNvW51mJltBKNjt7cJ-47" value="No" style="text;html=1;align=center;verticalAlign=middle;resizable=0;points=[];autosize=1;strokeColor=none;fillColor=none;" vertex="1" parent="WIyWlLk6GJQsqaUBKTNV-1">
          <mxGeometry x="490" y="555" width="40" height="30" as="geometry" />
        </mxCell>
        <mxCell id="b4TNvW51mJltBKNjt7cJ-48" value="print incorrect number of args" style="shape=parallelogram;perimeter=parallelogramPerimeter;whiteSpace=wrap;html=1;fixedSize=1;" vertex="1" parent="WIyWlLk6GJQsqaUBKTNV-1">
          <mxGeometry x="710" y="478" width="190" height="60" as="geometry" />
        </mxCell>
        <mxCell id="b4TNvW51mJltBKNjt7cJ-50" value="Yes" style="text;html=1;align=center;verticalAlign=middle;resizable=0;points=[];autosize=1;strokeColor=none;fillColor=none;" vertex="1" parent="WIyWlLk6GJQsqaUBKTNV-1">
          <mxGeometry x="610" y="520" width="40" height="30" as="geometry" />
        </mxCell>
        <mxCell id="b4TNvW51mJltBKNjt7cJ-56" value="" style="edgeStyle=orthogonalEdgeStyle;rounded=0;orthogonalLoop=1;jettySize=auto;html=1;" edge="1" parent="WIyWlLk6GJQsqaUBKTNV-1" source="b4TNvW51mJltBKNjt7cJ-51" target="b4TNvW51mJltBKNjt7cJ-55">
          <mxGeometry relative="1" as="geometry" />
        </mxCell>
        <mxCell id="b4TNvW51mJltBKNjt7cJ-51" value="Print User added" style="shape=parallelogram;perimeter=parallelogramPerimeter;whiteSpace=wrap;html=1;fixedSize=1;" vertex="1" parent="WIyWlLk6GJQsqaUBKTNV-1">
          <mxGeometry x="630" y="710" width="120" height="60" as="geometry" />
        </mxCell>
        <mxCell id="b4TNvW51mJltBKNjt7cJ-55" value="Exit" style="ellipse;whiteSpace=wrap;html=1;" vertex="1" parent="WIyWlLk6GJQsqaUBKTNV-1">
          <mxGeometry x="630" y="800" width="120" height="80" as="geometry" />
        </mxCell>
        <mxCell id="b4TNvW51mJltBKNjt7cJ-57" value="yes" style="text;html=1;align=center;verticalAlign=middle;resizable=0;points=[];autosize=1;strokeColor=none;fillColor=none;" vertex="1" parent="WIyWlLk6GJQsqaUBKTNV-1">
          <mxGeometry x="294" y="540" width="40" height="30" as="geometry" />
        </mxCell>
        <mxCell id="b4TNvW51mJltBKNjt7cJ-58" value="No" style="text;html=1;align=center;verticalAlign=middle;resizable=0;points=[];autosize=1;strokeColor=none;fillColor=none;" vertex="1" parent="WIyWlLk6GJQsqaUBKTNV-1">
          <mxGeometry x="440" y="520" width="40" height="30" as="geometry" />
        </mxCell>
        <mxCell id="b4TNvW51mJltBKNjt7cJ-63" value="" style="edgeStyle=orthogonalEdgeStyle;rounded=0;orthogonalLoop=1;jettySize=auto;html=1;" edge="1" parent="WIyWlLk6GJQsqaUBKTNV-1" source="b4TNvW51mJltBKNjt7cJ-59" target="b4TNvW51mJltBKNjt7cJ-62">
          <mxGeometry relative="1" as="geometry" />
        </mxCell>
        <mxCell id="b4TNvW51mJltBKNjt7cJ-59" value="List" style="rhombus;whiteSpace=wrap;html=1;" vertex="1" parent="WIyWlLk6GJQsqaUBKTNV-1">
          <mxGeometry x="410" y="600" width="80" height="80" as="geometry" />
        </mxCell>
        <mxCell id="b4TNvW51mJltBKNjt7cJ-61" value="No" style="text;html=1;align=center;verticalAlign=middle;resizable=0;points=[];autosize=1;strokeColor=none;fillColor=none;" vertex="1" parent="WIyWlLk6GJQsqaUBKTNV-1">
          <mxGeometry x="387.5" y="570" width="40" height="30" as="geometry" />
        </mxCell>
        <mxCell id="b4TNvW51mJltBKNjt7cJ-65" value="" style="edgeStyle=orthogonalEdgeStyle;rounded=0;orthogonalLoop=1;jettySize=auto;html=1;" edge="1" parent="WIyWlLk6GJQsqaUBKTNV-1" source="b4TNvW51mJltBKNjt7cJ-62" target="b4TNvW51mJltBKNjt7cJ-64">
          <mxGeometry relative="1" as="geometry" />
        </mxCell>
        <mxCell id="b4TNvW51mJltBKNjt7cJ-70" value="" style="edgeStyle=orthogonalEdgeStyle;rounded=0;orthogonalLoop=1;jettySize=auto;html=1;exitX=0.5;exitY=1;exitDx=0;exitDy=0;" edge="1" parent="WIyWlLk6GJQsqaUBKTNV-1" source="b4TNvW51mJltBKNjt7cJ-62" target="b4TNvW51mJltBKNjt7cJ-69">
          <mxGeometry relative="1" as="geometry" />
        </mxCell>
        <mxCell id="b4TNvW51mJltBKNjt7cJ-62" value="arg&amp;gt;3" style="rhombus;whiteSpace=wrap;html=1;" vertex="1" parent="WIyWlLk6GJQsqaUBKTNV-1">
          <mxGeometry x="410" y="710" width="80" height="80" as="geometry" />
        </mxCell>
        <mxCell id="b4TNvW51mJltBKNjt7cJ-67" value="" style="edgeStyle=orthogonalEdgeStyle;rounded=0;orthogonalLoop=1;jettySize=auto;html=1;" edge="1" parent="WIyWlLk6GJQsqaUBKTNV-1" source="b4TNvW51mJltBKNjt7cJ-64" target="b4TNvW51mJltBKNjt7cJ-66">
          <mxGeometry relative="1" as="geometry" />
        </mxCell>
        <mxCell id="b4TNvW51mJltBKNjt7cJ-64" value="&lt;div style=&quot;font-size: 14px; line-height: 19px;&quot;&gt;&lt;span style=&quot;background-color: rgb(255, 255, 255);&quot;&gt;Incorrect number of arguments&lt;/span&gt;&lt;/div&gt;" style="shape=parallelogram;perimeter=parallelogramPerimeter;whiteSpace=wrap;html=1;fixedSize=1;" vertex="1" parent="WIyWlLk6GJQsqaUBKTNV-1">
          <mxGeometry x="210" y="720" width="120" height="60" as="geometry" />
        </mxCell>
        <mxCell id="b4TNvW51mJltBKNjt7cJ-66" value="Exit" style="ellipse;whiteSpace=wrap;html=1;" vertex="1" parent="WIyWlLk6GJQsqaUBKTNV-1">
          <mxGeometry x="70" y="710" width="100" height="80" as="geometry" />
        </mxCell>
        <mxCell id="b4TNvW51mJltBKNjt7cJ-68" value="Yes" style="text;html=1;align=center;verticalAlign=middle;resizable=0;points=[];autosize=1;strokeColor=none;fillColor=none;" vertex="1" parent="WIyWlLk6GJQsqaUBKTNV-1">
          <mxGeometry x="350" y="720" width="40" height="30" as="geometry" />
        </mxCell>
        <mxCell id="b4TNvW51mJltBKNjt7cJ-77" value="" style="edgeStyle=orthogonalEdgeStyle;rounded=0;orthogonalLoop=1;jettySize=auto;html=1;" edge="1" parent="WIyWlLk6GJQsqaUBKTNV-1" source="b4TNvW51mJltBKNjt7cJ-69" target="b4TNvW51mJltBKNjt7cJ-76">
          <mxGeometry relative="1" as="geometry" />
        </mxCell>
        <mxCell id="b4TNvW51mJltBKNjt7cJ-80" value="" style="edgeStyle=orthogonalEdgeStyle;rounded=0;orthogonalLoop=1;jettySize=auto;html=1;exitX=0.5;exitY=1;exitDx=0;exitDy=0;entryX=0.5;entryY=0;entryDx=0;entryDy=0;" edge="1" parent="WIyWlLk6GJQsqaUBKTNV-1" source="b4TNvW51mJltBKNjt7cJ-69" target="b4TNvW51mJltBKNjt7cJ-82">
          <mxGeometry relative="1" as="geometry">
            <mxPoint x="240" y="1000" as="targetPoint" />
          </mxGeometry>
        </mxCell>
        <mxCell id="b4TNvW51mJltBKNjt7cJ-69" value="sudo-only" style="rhombus;whiteSpace=wrap;html=1;" vertex="1" parent="WIyWlLk6GJQsqaUBKTNV-1">
          <mxGeometry x="410" y="840" width="80" height="80" as="geometry" />
        </mxCell>
        <mxCell id="b4TNvW51mJltBKNjt7cJ-71" value="No" style="text;html=1;align=center;verticalAlign=middle;resizable=0;points=[];autosize=1;strokeColor=none;fillColor=none;" vertex="1" parent="WIyWlLk6GJQsqaUBKTNV-1">
          <mxGeometry x="410" y="800" width="40" height="30" as="geometry" />
        </mxCell>
        <mxCell id="b4TNvW51mJltBKNjt7cJ-84" value="" style="edgeStyle=orthogonalEdgeStyle;rounded=0;orthogonalLoop=1;jettySize=auto;html=1;" edge="1" parent="WIyWlLk6GJQsqaUBKTNV-1" source="b4TNvW51mJltBKNjt7cJ-76" target="b4TNvW51mJltBKNjt7cJ-83">
          <mxGeometry relative="1" as="geometry" />
        </mxCell>
        <mxCell id="b4TNvW51mJltBKNjt7cJ-76" value="Invalid Argument" style="whiteSpace=wrap;html=1;" vertex="1" parent="WIyWlLk6GJQsqaUBKTNV-1">
          <mxGeometry x="220" y="850" width="120" height="60" as="geometry" />
        </mxCell>
        <mxCell id="b4TNvW51mJltBKNjt7cJ-78" value="No" style="text;html=1;align=center;verticalAlign=middle;resizable=0;points=[];autosize=1;strokeColor=none;fillColor=none;" vertex="1" parent="WIyWlLk6GJQsqaUBKTNV-1">
          <mxGeometry x="360" y="850" width="40" height="30" as="geometry" />
        </mxCell>
        <mxCell id="b4TNvW51mJltBKNjt7cJ-81" value="Yes" style="text;html=1;align=center;verticalAlign=middle;resizable=0;points=[];autosize=1;strokeColor=none;fillColor=none;" vertex="1" parent="WIyWlLk6GJQsqaUBKTNV-1">
          <mxGeometry x="410" y="930" width="40" height="30" as="geometry" />
        </mxCell>
        <mxCell id="b4TNvW51mJltBKNjt7cJ-88" value="" style="edgeStyle=orthogonalEdgeStyle;rounded=0;orthogonalLoop=1;jettySize=auto;html=1;" edge="1" parent="WIyWlLk6GJQsqaUBKTNV-1" source="b4TNvW51mJltBKNjt7cJ-82" target="b4TNvW51mJltBKNjt7cJ-87">
          <mxGeometry relative="1" as="geometry" />
        </mxCell>
        <mxCell id="b4TNvW51mJltBKNjt7cJ-82" value="List sudo permissions users" style="rounded=0;whiteSpace=wrap;html=1;" vertex="1" parent="WIyWlLk6GJQsqaUBKTNV-1">
          <mxGeometry x="390" y="1000" width="120" height="60" as="geometry" />
        </mxCell>
        <mxCell id="b4TNvW51mJltBKNjt7cJ-83" value="Exit" style="ellipse;whiteSpace=wrap;html=1;" vertex="1" parent="WIyWlLk6GJQsqaUBKTNV-1">
          <mxGeometry x="80" y="840" width="110" height="80" as="geometry" />
        </mxCell>
        <mxCell id="b4TNvW51mJltBKNjt7cJ-87" value="Exit" style="ellipse;whiteSpace=wrap;html=1;rounded=0;" vertex="1" parent="WIyWlLk6GJQsqaUBKTNV-1">
          <mxGeometry x="610" y="990" width="130" height="80" as="geometry" />
        </mxCell>
        <mxCell id="b4TNvW51mJltBKNjt7cJ-90" value="No" style="text;html=1;align=center;verticalAlign=middle;resizable=0;points=[];autosize=1;strokeColor=none;fillColor=none;" vertex="1" parent="WIyWlLk6GJQsqaUBKTNV-1">
          <mxGeometry x="70" y="638" width="40" height="30" as="geometry" />
        </mxCell>
        <mxCell id="b4TNvW51mJltBKNjt7cJ-96" value="" style="edgeStyle=orthogonalEdgeStyle;rounded=0;orthogonalLoop=1;jettySize=auto;html=1;" edge="1" parent="WIyWlLk6GJQsqaUBKTNV-1" source="b4TNvW51mJltBKNjt7cJ-91" target="b4TNvW51mJltBKNjt7cJ-95">
          <mxGeometry relative="1" as="geometry" />
        </mxCell>
        <mxCell id="b4TNvW51mJltBKNjt7cJ-91" value="file &amp;amp;&amp;amp; getInfo" style="rhombus;whiteSpace=wrap;html=1;" vertex="1" parent="WIyWlLk6GJQsqaUBKTNV-1">
          <mxGeometry x="-120" y="730" width="90" height="90" as="geometry" />
        </mxCell>
        <mxCell id="b4TNvW51mJltBKNjt7cJ-100" value="" style="edgeStyle=orthogonalEdgeStyle;rounded=0;orthogonalLoop=1;jettySize=auto;html=1;" edge="1" parent="WIyWlLk6GJQsqaUBKTNV-1" source="b4TNvW51mJltBKNjt7cJ-95" target="b4TNvW51mJltBKNjt7cJ-99">
          <mxGeometry relative="1" as="geometry" />
        </mxCell>
        <mxCell id="b4TNvW51mJltBKNjt7cJ-106" value="" style="edgeStyle=orthogonalEdgeStyle;rounded=0;orthogonalLoop=1;jettySize=auto;html=1;" edge="1" parent="WIyWlLk6GJQsqaUBKTNV-1" source="b4TNvW51mJltBKNjt7cJ-95" target="b4TNvW51mJltBKNjt7cJ-105">
          <mxGeometry relative="1" as="geometry" />
        </mxCell>
        <mxCell id="b4TNvW51mJltBKNjt7cJ-95" value="file &amp;amp;&amp;amp; getInfo" style="rhombus;whiteSpace=wrap;html=1;" vertex="1" parent="WIyWlLk6GJQsqaUBKTNV-1">
          <mxGeometry x="-290" y="730" width="90" height="90" as="geometry" />
        </mxCell>
        <mxCell id="b4TNvW51mJltBKNjt7cJ-97" value="No" style="text;html=1;align=center;verticalAlign=middle;resizable=0;points=[];autosize=1;strokeColor=none;fillColor=none;" vertex="1" parent="WIyWlLk6GJQsqaUBKTNV-1">
          <mxGeometry x="-190" y="738" width="40" height="30" as="geometry" />
        </mxCell>
        <mxCell id="b4TNvW51mJltBKNjt7cJ-104" value="" style="edgeStyle=orthogonalEdgeStyle;rounded=0;orthogonalLoop=1;jettySize=auto;html=1;" edge="1" parent="WIyWlLk6GJQsqaUBKTNV-1" source="b4TNvW51mJltBKNjt7cJ-99" target="b4TNvW51mJltBKNjt7cJ-103">
          <mxGeometry relative="1" as="geometry" />
        </mxCell>
        <mxCell id="b4TNvW51mJltBKNjt7cJ-99" value="Print Invalid argument" style="shape=parallelogram;perimeter=parallelogramPerimeter;whiteSpace=wrap;html=1;fixedSize=1;" vertex="1" parent="WIyWlLk6GJQsqaUBKTNV-1">
          <mxGeometry x="-490" y="745" width="135" height="60" as="geometry" />
        </mxCell>
        <mxCell id="b4TNvW51mJltBKNjt7cJ-103" value="Exit" style="ellipse;whiteSpace=wrap;html=1;" vertex="1" parent="WIyWlLk6GJQsqaUBKTNV-1">
          <mxGeometry x="-640" y="1350" width="97.5" height="80" as="geometry" />
        </mxCell>
        <mxCell id="b4TNvW51mJltBKNjt7cJ-110" value="" style="edgeStyle=orthogonalEdgeStyle;rounded=0;orthogonalLoop=1;jettySize=auto;html=1;" edge="1" parent="WIyWlLk6GJQsqaUBKTNV-1" source="b4TNvW51mJltBKNjt7cJ-105" target="b4TNvW51mJltBKNjt7cJ-109">
          <mxGeometry relative="1" as="geometry" />
        </mxCell>
        <mxCell id="b4TNvW51mJltBKNjt7cJ-115" value="" style="edgeStyle=orthogonalEdgeStyle;rounded=0;orthogonalLoop=1;jettySize=auto;html=1;" edge="1" parent="WIyWlLk6GJQsqaUBKTNV-1" source="b4TNvW51mJltBKNjt7cJ-105" target="b4TNvW51mJltBKNjt7cJ-114">
          <mxGeometry relative="1" as="geometry" />
        </mxCell>
        <mxCell id="b4TNvW51mJltBKNjt7cJ-105" value="3rd arg != empty" style="rhombus;whiteSpace=wrap;html=1;" vertex="1" parent="WIyWlLk6GJQsqaUBKTNV-1">
          <mxGeometry x="-295" y="880" width="100" height="90" as="geometry" />
        </mxCell>
        <mxCell id="b4TNvW51mJltBKNjt7cJ-107" value="Yes" style="text;html=1;align=center;verticalAlign=middle;resizable=0;points=[];autosize=1;strokeColor=none;fillColor=none;" vertex="1" parent="WIyWlLk6GJQsqaUBKTNV-1">
          <mxGeometry x="-240" y="838" width="40" height="30" as="geometry" />
        </mxCell>
        <mxCell id="b4TNvW51mJltBKNjt7cJ-108" value="No" style="text;html=1;align=center;verticalAlign=middle;resizable=0;points=[];autosize=1;strokeColor=none;fillColor=none;" vertex="1" parent="WIyWlLk6GJQsqaUBKTNV-1">
          <mxGeometry x="-350" y="748" width="40" height="30" as="geometry" />
        </mxCell>
        <mxCell id="b4TNvW51mJltBKNjt7cJ-113" value="" style="edgeStyle=orthogonalEdgeStyle;rounded=0;orthogonalLoop=1;jettySize=auto;html=1;" edge="1" parent="WIyWlLk6GJQsqaUBKTNV-1" source="b4TNvW51mJltBKNjt7cJ-109" target="b4TNvW51mJltBKNjt7cJ-83">
          <mxGeometry relative="1" as="geometry" />
        </mxCell>
        <mxCell id="b4TNvW51mJltBKNjt7cJ-109" value="Print Missing file name" style="shape=parallelogram;perimeter=parallelogramPerimeter;whiteSpace=wrap;html=1;fixedSize=1;" vertex="1" parent="WIyWlLk6GJQsqaUBKTNV-1">
          <mxGeometry x="-125" y="895" width="120" height="60" as="geometry" />
        </mxCell>
        <mxCell id="b4TNvW51mJltBKNjt7cJ-111" value="No" style="text;html=1;align=center;verticalAlign=middle;resizable=0;points=[];autosize=1;strokeColor=none;fillColor=none;" vertex="1" parent="WIyWlLk6GJQsqaUBKTNV-1">
          <mxGeometry x="-190" y="898" width="40" height="30" as="geometry" />
        </mxCell>
        <mxCell id="b4TNvW51mJltBKNjt7cJ-120" value="" style="edgeStyle=orthogonalEdgeStyle;rounded=0;orthogonalLoop=1;jettySize=auto;html=1;" edge="1" parent="WIyWlLk6GJQsqaUBKTNV-1" source="b4TNvW51mJltBKNjt7cJ-114" target="b4TNvW51mJltBKNjt7cJ-119">
          <mxGeometry relative="1" as="geometry" />
        </mxCell>
        <mxCell id="b4TNvW51mJltBKNjt7cJ-122" value="" style="edgeStyle=orthogonalEdgeStyle;rounded=0;orthogonalLoop=1;jettySize=auto;html=1;" edge="1" parent="WIyWlLk6GJQsqaUBKTNV-1" source="b4TNvW51mJltBKNjt7cJ-114">
          <mxGeometry relative="1" as="geometry">
            <mxPoint x="-369.9999999999998" y="1080" as="targetPoint" />
          </mxGeometry>
        </mxCell>
        <mxCell id="b4TNvW51mJltBKNjt7cJ-133" value="" style="edgeStyle=orthogonalEdgeStyle;rounded=0;orthogonalLoop=1;jettySize=auto;html=1;" edge="1" parent="WIyWlLk6GJQsqaUBKTNV-1" source="b4TNvW51mJltBKNjt7cJ-114">
          <mxGeometry relative="1" as="geometry">
            <mxPoint x="-115.00000000000023" y="1080" as="targetPoint" />
          </mxGeometry>
        </mxCell>
        <mxCell id="b4TNvW51mJltBKNjt7cJ-114" value="4th arg == --size || -s" style="rhombus;whiteSpace=wrap;html=1;" vertex="1" parent="WIyWlLk6GJQsqaUBKTNV-1">
          <mxGeometry x="-290" y="1040" width="90" height="80" as="geometry" />
        </mxCell>
        <mxCell id="b4TNvW51mJltBKNjt7cJ-116" value="Yes" style="text;html=1;align=center;verticalAlign=middle;resizable=0;points=[];autosize=1;strokeColor=none;fillColor=none;" vertex="1" parent="WIyWlLk6GJQsqaUBKTNV-1">
          <mxGeometry x="-290" y="988" width="40" height="30" as="geometry" />
        </mxCell>
        <mxCell id="b4TNvW51mJltBKNjt7cJ-157" value="" style="edgeStyle=orthogonalEdgeStyle;rounded=0;orthogonalLoop=1;jettySize=auto;html=1;" edge="1" parent="WIyWlLk6GJQsqaUBKTNV-1" source="b4TNvW51mJltBKNjt7cJ-119">
          <mxGeometry relative="1" as="geometry">
            <mxPoint x="-540" y="1400" as="targetPoint" />
            <Array as="points">
              <mxPoint x="-245" y="1280" />
              <mxPoint x="-539" y="1280" />
              <mxPoint x="-539" y="1400" />
            </Array>
          </mxGeometry>
        </mxCell>
        <mxCell id="b4TNvW51mJltBKNjt7cJ-119" value="Print size of file" style="shape=parallelogram;perimeter=parallelogramPerimeter;whiteSpace=wrap;html=1;fixedSize=1;" vertex="1" parent="WIyWlLk6GJQsqaUBKTNV-1">
          <mxGeometry x="-305" y="1170" width="120" height="60" as="geometry" />
        </mxCell>
        <mxCell id="b4TNvW51mJltBKNjt7cJ-129" value="" style="edgeStyle=orthogonalEdgeStyle;rounded=0;orthogonalLoop=1;jettySize=auto;html=1;" edge="1" parent="WIyWlLk6GJQsqaUBKTNV-1" target="b4TNvW51mJltBKNjt7cJ-128">
          <mxGeometry relative="1" as="geometry">
            <mxPoint x="-459.9999999999998" y="1080" as="sourcePoint" />
          </mxGeometry>
        </mxCell>
        <mxCell id="b4TNvW51mJltBKNjt7cJ-123" value="Yes" style="text;html=1;align=center;verticalAlign=middle;resizable=0;points=[];autosize=1;strokeColor=none;fillColor=none;" vertex="1" parent="WIyWlLk6GJQsqaUBKTNV-1">
          <mxGeometry x="-250" y="1128" width="40" height="30" as="geometry" />
        </mxCell>
        <mxCell id="b4TNvW51mJltBKNjt7cJ-124" value="No" style="text;html=1;align=center;verticalAlign=middle;resizable=0;points=[];autosize=1;strokeColor=none;fillColor=none;" vertex="1" parent="WIyWlLk6GJQsqaUBKTNV-1">
          <mxGeometry x="-350" y="1058" width="40" height="30" as="geometry" />
        </mxCell>
        <mxCell id="b4TNvW51mJltBKNjt7cJ-131" value="" style="edgeStyle=orthogonalEdgeStyle;rounded=0;orthogonalLoop=1;jettySize=auto;html=1;" edge="1" parent="WIyWlLk6GJQsqaUBKTNV-1" source="b4TNvW51mJltBKNjt7cJ-128" target="b4TNvW51mJltBKNjt7cJ-130">
          <mxGeometry relative="1" as="geometry" />
        </mxCell>
        <mxCell id="b4TNvW51mJltBKNjt7cJ-128" value="4th arg == --owner || -o" style="rhombus;whiteSpace=wrap;html=1;" vertex="1" parent="WIyWlLk6GJQsqaUBKTNV-1">
          <mxGeometry x="-458" y="1040" width="90" height="80" as="geometry" />
        </mxCell>
        <mxCell id="b4TNvW51mJltBKNjt7cJ-155" value="" style="edgeStyle=orthogonalEdgeStyle;rounded=0;orthogonalLoop=1;jettySize=auto;html=1;entryX=1;entryY=0.5;entryDx=0;entryDy=0;" edge="1" parent="WIyWlLk6GJQsqaUBKTNV-1" source="b4TNvW51mJltBKNjt7cJ-130" target="b4TNvW51mJltBKNjt7cJ-103">
          <mxGeometry relative="1" as="geometry">
            <mxPoint x="-410" y="1320" as="targetPoint" />
          </mxGeometry>
        </mxCell>
        <mxCell id="b4TNvW51mJltBKNjt7cJ-130" value="Print owner" style="shape=parallelogram;perimeter=parallelogramPerimeter;whiteSpace=wrap;html=1;fixedSize=1;" vertex="1" parent="WIyWlLk6GJQsqaUBKTNV-1">
          <mxGeometry x="-473" y="1170" width="120" height="60" as="geometry" />
        </mxCell>
        <mxCell id="b4TNvW51mJltBKNjt7cJ-137" value="" style="edgeStyle=orthogonalEdgeStyle;rounded=0;orthogonalLoop=1;jettySize=auto;html=1;" edge="1" parent="WIyWlLk6GJQsqaUBKTNV-1" source="b4TNvW51mJltBKNjt7cJ-134" target="b4TNvW51mJltBKNjt7cJ-136">
          <mxGeometry relative="1" as="geometry" />
        </mxCell>
        <mxCell id="b4TNvW51mJltBKNjt7cJ-141" value="" style="edgeStyle=orthogonalEdgeStyle;rounded=0;orthogonalLoop=1;jettySize=auto;html=1;" edge="1" parent="WIyWlLk6GJQsqaUBKTNV-1" source="b4TNvW51mJltBKNjt7cJ-134" target="b4TNvW51mJltBKNjt7cJ-140">
          <mxGeometry relative="1" as="geometry" />
        </mxCell>
        <mxCell id="b4TNvW51mJltBKNjt7cJ-134" value="4th arg == --permission || -p" style="rhombus;whiteSpace=wrap;html=1;" vertex="1" parent="WIyWlLk6GJQsqaUBKTNV-1">
          <mxGeometry x="-120" y="1040" width="90" height="80" as="geometry" />
        </mxCell>
        <mxCell id="b4TNvW51mJltBKNjt7cJ-135" value="No" style="text;html=1;align=center;verticalAlign=middle;resizable=0;points=[];autosize=1;strokeColor=none;fillColor=none;" vertex="1" parent="WIyWlLk6GJQsqaUBKTNV-1">
          <mxGeometry x="-180" y="1058" width="40" height="30" as="geometry" />
        </mxCell>
        <mxCell id="b4TNvW51mJltBKNjt7cJ-159" value="" style="edgeStyle=orthogonalEdgeStyle;rounded=0;orthogonalLoop=1;jettySize=auto;html=1;" edge="1" parent="WIyWlLk6GJQsqaUBKTNV-1" source="b4TNvW51mJltBKNjt7cJ-136">
          <mxGeometry relative="1" as="geometry">
            <mxPoint x="-540" y="1390" as="targetPoint" />
            <Array as="points">
              <mxPoint x="-75" y="1350" />
              <mxPoint x="-539" y="1350" />
              <mxPoint x="-539" y="1390" />
            </Array>
          </mxGeometry>
        </mxCell>
        <mxCell id="b4TNvW51mJltBKNjt7cJ-136" value="Print permissions" style="shape=parallelogram;perimeter=parallelogramPerimeter;whiteSpace=wrap;html=1;fixedSize=1;" vertex="1" parent="WIyWlLk6GJQsqaUBKTNV-1">
          <mxGeometry x="-135" y="1169" width="120" height="60" as="geometry" />
        </mxCell>
        <mxCell id="b4TNvW51mJltBKNjt7cJ-138" value="Yes" style="text;html=1;align=center;verticalAlign=middle;resizable=0;points=[];autosize=1;strokeColor=none;fillColor=none;" vertex="1" parent="WIyWlLk6GJQsqaUBKTNV-1">
          <mxGeometry x="-420" y="1118" width="40" height="30" as="geometry" />
        </mxCell>
        <mxCell id="b4TNvW51mJltBKNjt7cJ-139" value="yes" style="text;html=1;align=center;verticalAlign=middle;resizable=0;points=[];autosize=1;strokeColor=none;fillColor=none;" vertex="1" parent="WIyWlLk6GJQsqaUBKTNV-1">
          <mxGeometry x="-80" y="1118" width="40" height="30" as="geometry" />
        </mxCell>
        <mxCell id="b4TNvW51mJltBKNjt7cJ-143" value="" style="edgeStyle=orthogonalEdgeStyle;rounded=0;orthogonalLoop=1;jettySize=auto;html=1;" edge="1" parent="WIyWlLk6GJQsqaUBKTNV-1" source="b4TNvW51mJltBKNjt7cJ-140" target="b4TNvW51mJltBKNjt7cJ-142">
          <mxGeometry relative="1" as="geometry" />
        </mxCell>
        <mxCell id="b4TNvW51mJltBKNjt7cJ-147" value="" style="edgeStyle=orthogonalEdgeStyle;rounded=0;orthogonalLoop=1;jettySize=auto;html=1;" edge="1" parent="WIyWlLk6GJQsqaUBKTNV-1" source="b4TNvW51mJltBKNjt7cJ-140">
          <mxGeometry relative="1" as="geometry">
            <mxPoint x="220" y="1080" as="targetPoint" />
          </mxGeometry>
        </mxCell>
        <mxCell id="b4TNvW51mJltBKNjt7cJ-140" value="4th arg == --lastmodified || -m" style="rhombus;whiteSpace=wrap;html=1;" vertex="1" parent="WIyWlLk6GJQsqaUBKTNV-1">
          <mxGeometry x="50" y="1040" width="90" height="80" as="geometry" />
        </mxCell>
        <mxCell id="b4TNvW51mJltBKNjt7cJ-161" value="" style="edgeStyle=orthogonalEdgeStyle;rounded=0;orthogonalLoop=1;jettySize=auto;html=1;" edge="1" parent="WIyWlLk6GJQsqaUBKTNV-1" source="b4TNvW51mJltBKNjt7cJ-142">
          <mxGeometry relative="1" as="geometry">
            <mxPoint x="-540" y="1390" as="targetPoint" />
            <Array as="points">
              <mxPoint x="95" y="1380" />
              <mxPoint x="-539" y="1380" />
              <mxPoint x="-539" y="1390" />
            </Array>
          </mxGeometry>
        </mxCell>
        <mxCell id="b4TNvW51mJltBKNjt7cJ-142" value="Print last modified details" style="shape=parallelogram;perimeter=parallelogramPerimeter;whiteSpace=wrap;html=1;fixedSize=1;" vertex="1" parent="WIyWlLk6GJQsqaUBKTNV-1">
          <mxGeometry x="35" y="1170" width="120" height="60" as="geometry" />
        </mxCell>
        <mxCell id="b4TNvW51mJltBKNjt7cJ-144" value="No" style="text;html=1;align=center;verticalAlign=middle;resizable=0;points=[];autosize=1;strokeColor=none;fillColor=none;" vertex="1" parent="WIyWlLk6GJQsqaUBKTNV-1">
          <mxGeometry x="-10" y="1048" width="40" height="30" as="geometry" />
        </mxCell>
        <mxCell id="b4TNvW51mJltBKNjt7cJ-145" value="yes" style="text;html=1;align=center;verticalAlign=middle;resizable=0;points=[];autosize=1;strokeColor=none;fillColor=none;" vertex="1" parent="WIyWlLk6GJQsqaUBKTNV-1">
          <mxGeometry x="90" y="1118" width="40" height="30" as="geometry" />
        </mxCell>
        <mxCell id="b4TNvW51mJltBKNjt7cJ-148" value="No" style="text;html=1;align=center;verticalAlign=middle;resizable=0;points=[];autosize=1;strokeColor=none;fillColor=none;" vertex="1" parent="WIyWlLk6GJQsqaUBKTNV-1">
          <mxGeometry x="150" y="1048" width="40" height="30" as="geometry" />
        </mxCell>
        <mxCell id="b4TNvW51mJltBKNjt7cJ-149" value="Print information about file" style="shape=parallelogram;perimeter=parallelogramPerimeter;whiteSpace=wrap;html=1;fixedSize=1;" vertex="1" parent="WIyWlLk6GJQsqaUBKTNV-1">
          <mxGeometry x="210" y="1048" width="120" height="60" as="geometry" />
        </mxCell>
      </root>
    </mxGraphModel>
  </diagram>
</mxfile>
